<?xml version="1.0" encoding="iso-8859-1"?>
<!-- Generator: Adobe Illustrator 18.0.0, SVG Export Plug-In . SVG Version: 6.00 Build 0)  -->
<!DOCTYPE svg PUBLIC "-//W3C//DTD SVG 1.1//EN" "http://www.w3.org/Graphics/SVG/1.1/DTD/svg11.dtd">
<svg version="1.1" id="Capa_1" xmlns="http://www.w3.org/2000/svg" xmlns:xlink="http://www.w3.org/1999/xlink" x="0px" y="0px"
	 viewBox="0 0 287.346 287.346" style="enable-background:new 0 0 287.346 287.346;" xml:space="preserve">
<path d="M225.074,78.691c-17.128-11.878-38.436-19.58-61.401-22.424V40h14.865c11.046,0,20-8.954,20-20c0-11.046-8.954-20-20-20
	h-69.732c-11.046,0-20,8.954-20,20c0,11.046,8.954,20,20,20h14.866v16.267c-22.966,2.845-44.274,10.547-61.4,22.424
	c-23.895,16.571-37.599,40.256-37.599,64.982c0,24.726,13.704,48.41,37.599,64.981c17.126,11.877,38.435,19.579,61.4,22.424v16.266
	h-14.866c-11.046,0-20,8.954-20,20s8.954,20,20,20h69.732c11.046,0,20-8.954,20-20s-8.954-20-20-20h-14.865V231.08
	c22.966-2.845,44.274-10.547,61.401-22.424c23.895-16.571,37.599-40.256,37.599-64.981S248.968,95.263,225.074,78.691z
	 M85.067,175.785c-7.616-5.281-20.394-16.477-20.394-32.111c0-15.635,12.777-26.831,20.394-32.112
	c10.5-7.282,23.976-12.408,38.605-14.874v93.972C109.043,188.193,95.567,183.067,85.067,175.785z M202.279,175.785
	c-10.501,7.282-23.977,12.408-38.607,14.875V96.687c14.629,2.467,28.106,7.593,38.607,14.875
	c7.616,5.281,20.393,16.477,20.393,32.112C222.672,159.309,209.895,170.504,202.279,175.785z"/>
<g>
</g>
<g>
</g>
<g>
</g>
<g>
</g>
<g>
</g>
<g>
</g>
<g>
</g>
<g>
</g>
<g>
</g>
<g>
</g>
<g>
</g>
<g>
</g>
<g>
</g>
<g>
</g>
<g>
</g>
</svg>
